<?xml version="1.0" encoding="utf-8"?>
<svg viewBox="0 0 500 500" xmlns="http://www.w3.org/2000/svg">
  <path style="fill: rgb(216, 216, 216); stroke: rgb(0, 0, 0);" d="M 118.812 100.81 L 74.257 171.017 C 74.257 171.017 60.306 274.078 60.306 273.627 C 60.306 273.176 99.01 344.735 99.01 345.185 C 99.01 345.635 146.264 373.988 147.615 373.988 C 148.966 373.988 190.369 394.69 189.469 396.94 C 188.569 399.19 229.073 404.591 229.073 404.591 C 229.073 404.591 256.976 394.689 256.526 394.689 C 256.076 394.689 288.929 387.039 289.829 387.039 C 290.729 387.039 328.533 390.189 328.533 390.639 C 328.533 391.089 337.984 373.087 337.984 373.087 L 369.037 360.936 L 396.04 333.033 L 385.239 300.63 L 395.139 274.527 L 379.388 258.326 C 379.388 258.326 328.533 251.575 328.083 251.575 C 327.633 251.575 292.079 235.374 292.079 235.374 L 280.378 210.621 L 273.628 178.668 C 273.628 178.668 305.13 151.665 305.581 151.665 C 306.032 151.665 353.735 137.264 353.735 136.814 C 353.735 136.364 337.534 89.109 337.534 89.109 C 337.534 89.109 306.931 63.456 306.481 63.456 C 306.031 63.456 234.923 49.955 234.473 49.955 C 234.023 49.955 171.917 67.957 171.467 68.407 C 171.017 68.857 118.812 99.91 118.812 100.81 Z"/>
</svg>