<?xml version="1.0" encoding="utf-8"?>
<svg viewBox="0 0 500 500" xmlns="http://www.w3.org/2000/svg">
  <rect x="144.404" y="355.144" width="175.09" height="117.78" style="fill: rgb(216, 216, 216); stroke: rgb(0, 0, 0);"/>
  <path style="fill: rgb(216, 216, 216); stroke: rgb(0, 0, 0);" d="M 319.495 355.596 L 335.289 322.653 C 335.289 322.653 339.801 295.578 339.801 295.126 C 339.801 294.674 329.422 266.697 329.422 266.697 C 329.422 266.697 300.993 241.426 300.993 241.877 C 300.993 242.328 273.917 224.729 272.563 225.18 C 271.209 225.631 236.913 215.253 236.913 215.253 L 203.971 217.058 L 176.895 229.242 L 157.04 252.256 L 148.466 268.953 L 163.357 276.173 L 157.491 287.455 L 93.412 254.513 L 76.715 286.552 L 147.112 319.946 L 141.697 328.971 L 129.061 326.715 L 131.318 340.704 L 145.758 356.498"/>
</svg>